<svg xmlns="http://www.w3.org/2000/svg" xmlns:xlink="http://www.w3.org/1999/xlink" width="48" height="48" version="1.0">
    <defs>
        <linearGradient id="i">
            <stop offset="0"/>
            <stop offset="1" stop-opacity="0"/>
        </linearGradient>
        <linearGradient id="f">
            <stop offset="0" stop-color="#fff"/>
            <stop offset=".674" stop-color="#fff"/>
            <stop offset="1" stop-color="#eeeeec"/>
        </linearGradient>
        <linearGradient id="h">
            <stop offset="0" stop-color="#f57900"/>
            <stop offset="1" stop-color="#fcaf3e"/>
        </linearGradient>
        <linearGradient id="k">
            <stop offset="0"/>
            <stop offset="1" stop-opacity="0"/>
        </linearGradient>
        <linearGradient id="c">
            <stop offset="0" stop-color="#fff"/>
            <stop offset="1" stop-color="#fff" stop-opacity="0"/>
        </linearGradient>
        <linearGradient id="j">
            <stop offset="0" stop-color="#888a85"/>
            <stop offset="1" stop-color="#d3d7cf"/>
        </linearGradient>
        <linearGradient id="l">
            <stop offset="0" stop-color="#fff"/>
            <stop offset="1" stop-color="#eeeeec" stop-opacity="0"/>
        </linearGradient>
        <linearGradient id="e">
            <stop offset="0" stop-color="#888a85"/>
            <stop offset="1" stop-color="#555753"/>
        </linearGradient>
        <linearGradient id="d">
            <stop offset="0" stop-color="#eeeeec"/>
            <stop offset="1" stop-color="#eeeeec" stop-opacity="0"/>
        </linearGradient>
        <linearGradient id="g">
            <stop offset="0" stop-color="#fff"/>
            <stop offset="1" stop-color="#fff" stop-opacity="0"/>
        </linearGradient>
        <linearGradient id="a">
            <stop offset="0"/>
            <stop offset="1" stop-opacity="0"/>
        </linearGradient>
        <linearGradient id="b">
            <stop offset="0" stop-opacity="0"/>
            <stop offset=".5"/>
            <stop offset="1" stop-opacity="0"/>
        </linearGradient>
        <radialGradient xlink:href="#a" id="m" gradientUnits="userSpaceOnUse" gradientTransform="matrix(2.00378 0 0 1.4 27.988 -17.4)" cx="4.993" cy="43.5" fx="4.993" fy="43.5" r="2.5"/>
        <radialGradient xlink:href="#a" id="n" gradientUnits="userSpaceOnUse" gradientTransform="matrix(2.00378 0 0 1.4 -20.012 -104.4)" cx="4.993" cy="43.5" fx="4.993" fy="43.5" r="2.5"/>
        <linearGradient xlink:href="#b" id="o" gradientUnits="userSpaceOnUse" x1="25.058" y1="47.028" x2="25.058" y2="39.999"/>
        <linearGradient xlink:href="#c" id="x" gradientUnits="userSpaceOnUse" gradientTransform="translate(-50.517 48.821) scale(1.27049)" x1="14.548" y1="23.128" x2="15.581" y2="26.867"/>
        <linearGradient xlink:href="#d" id="u" gradientUnits="userSpaceOnUse" gradientTransform="matrix(.97297 0 0 1 -88.838 -1)" x1="15.47" y1="-4.5" x2="43" y2="-4.5"/>
        <linearGradient xlink:href="#e" id="t" gradientUnits="userSpaceOnUse" gradientTransform="translate(-90 2)" x1="26.357" y1="2.571" x2="29" y2="10.571"/>
        <radialGradient xlink:href="#f" id="s" gradientUnits="userSpaceOnUse" gradientTransform="matrix(1.04106 0 0 .81597 2.69 5.405)" cx="-65.5" cy="18.5" fx="-65.5" fy="18.5" r="18.5"/>
        <linearGradient xlink:href="#g" id="w" gradientUnits="userSpaceOnUse" x1="20.135" y1="29.677" x2="13.636" y2="17.023"/>
        <linearGradient xlink:href="#h" id="v" gradientUnits="userSpaceOnUse" x1="17.697" y1="29.966" x2="14.499" y2="20.717"/>
        <radialGradient xlink:href="#i" id="p" gradientUnits="userSpaceOnUse" gradientTransform="matrix(1 0 0 .31579 0 29.421)" cx="24.5" cy="43" fx="24.5" fy="43" r="9.5"/>
        <linearGradient xlink:href="#j" id="q" gradientUnits="userSpaceOnUse" gradientTransform="translate(90 -1)" x1="-25.942" y1="42.407" x2="-25.942" y2="45"/>
        <linearGradient xlink:href="#k" id="y" gradientUnits="userSpaceOnUse" gradientTransform="translate(-89 2)" x1="24.5" y1="34" x2="24.5" y2="35"/>
        <linearGradient xlink:href="#l" id="r" gradientUnits="userSpaceOnUse" gradientTransform="translate(-69 -4)" x1="24.857" y1="39.5" x2="25.5" y2="40"/>
    </defs>
    <g opacity=".14">
        <g opacity=".4">
            <path fill="url(#m)" d="M38 40h5v7h-5z" transform="matrix(1.26316 0 0 1 -6.316 1.5)"/>
            <path transform="matrix(-1.26316 0 0 -1 -6.316 1.5)" fill="url(#n)" d="M-10-47h5v7h-5z"/>
            <path fill="url(#o)" d="M10 40h28v7H10z" transform="matrix(1.26316 0 0 1 -6.316 1.5)"/>
        </g>
    </g>
    <g transform="translate(90)">
        <path transform="matrix(1 0 0 .83333 -89 7.167)" d="M34 43a9.5 3 0 1 1-19 0 9.5 3 0 1 1 19 0z" opacity=".284" fill="url(#p)"/>
        <rect transform="scale(-1 1)" ry="1" rx="1" y="34.5" x="63.5" height="9" width="2" fill="url(#q)" stroke="#888a85"/>
        <rect width="2" height="12.889" x="63.5" y="27.611" rx="1" ry="1.432" transform="scale(-1 1)" fill="#d3d7cf" stroke="#999"/>
        <g transform="translate(-21 4)">
            <path d="M-49.5 39.5l6-3.5m6 3.5l-6-3.5" fill="#d3d7cf" fill-rule="evenodd" stroke="#888a85" stroke-width="3" stroke-linecap="round"/>
            <path d="M-49.5 39.5l6-3.5m6 3.5l-6-3.5" fill="#d3d7cf" fill-rule="evenodd" stroke="#d3d7cf" stroke-linecap="round"/>
            <rect width="4" height="3" x="-45.5" y="34.5" rx="1.5" ry="1.5" fill="#d3d7cf" stroke="#777974"/>
            <path d="M-48.779 39.5a.721.721 0 1 1-1.442 0 .721.721 0 1 1 1.442 0z" fill="#fff"/>
            <rect width="3" height="2" x="-45" y="35" rx="1.125" ry="1" fill="url(#r)"/>
        </g>
    </g>
    <path d="M32.221 43.5a.721.721 0 1 1-1.442 0 .721.721 0 1 1 1.442 0z" fill="#fff"/>
    <g transform="translate(90)">
        <rect ry="1.057" rx="1.02" y="6.5" x="-84.5" height="28" width="38" fill="url(#s)" stroke="#babdb6"/>
        <path d="M-82.594 7.5c-.53 0-.906.244-.906.587V32.83c0 .343.377.587.906.587h34.188c.53 0 .906-.244.906-.587V8.087c0-.343-.377-.587-.906-.587h-34.188z" fill="none" stroke="#fff"/>
        <path opacity=".117" d="M-85 7h39v2h-39z"/>
        <rect ry="1.5" rx="1.583" y="4.5" x="-85.5" height="3" width="40" fill="#babdb6" stroke="url(#t)"/>
        <rect ry=".5" rx=".486" transform="scale(1 -1)" y="-6" x="-84" height="1" width="37" fill="url(#u)"/>
        <rect ry="1" rx="1" transform="matrix(0 1 1 0 0 0)" y="-85" x="5" height="2" width="2" fill="#fff"/>
        <rect ry="1" rx="1" transform="matrix(0 1 1 0 0 0)" y="-48" x="5" height="2" width="2" fill="#fff"/>
        <g opacity=".121" stroke="#000" stroke-linejoin="round">
            <path d="M-66.532 23.5a5.967 5.967 0 1 1-5.918-5.967l-.05 5.968z" stroke-width="1.065"/>
            <path d="M-70.473 15.532c3.544-.297 6.237 2.341 5.94 5.995L-70.5 21.5l.027-5.968z" stroke-width="1.064"/>
        </g>
        <path transform="translate(-94.483 -5.821) scale(1.27049)" d="M21.213 22.292a4.697 4.697 0 1 1-4.658-4.697l-.039 4.697z" fill="url(#v)" stroke="#af4e00" stroke-width=".63" stroke-linejoin="round"/>
        <path d="M-71.473 14.532c3.544-.297 6.237 2.341 5.94 5.995L-71.5 20.5l.027-5.968z" fill="#729fcf" stroke="#3465a4" stroke-width=".8" stroke-linejoin="round"/>
        <path transform="translate(-94.483 -5.821) scale(1.27049)" d="M15.75 18.563c-1.772.365-3.125 1.843-3.125 3.718a3.916 3.916 0 0 0 3.906 3.907c1.865 0 3.342-1.337 3.719-3.094h-3.719a.81.81 0 0 1-.812-.813l.031-3.718z" fill="none" stroke="url(#w)" stroke-width=".838"/>
        <path d="M-66.536 19.498c-.156-1.93-1.717-3.72-3.911-3.937l-.04 3.92 3.95.017z" opacity=".392" fill="none" stroke="url(#x)"/>
        <rect ry=".5" rx=".389" y="23" x="-59" height="1" width="7" fill="#babdb6"/>
        <rect ry=".5" rx=".5" y="21" x="-59" height="1" width="9" fill="#babdb6"/>
        <rect ry=".5" rx=".5" y="19" x="-59" height="1" width="9" fill="#555753"/>
        <rect ry=".5" rx=".444" y="14" x="-61" height="1" width="8" fill="#babdb6"/>
        <rect ry=".5" rx=".5" y="12" x="-61" height="1" width="9" fill="#555753"/>
        <path d="M-67 28.5l8.538.01-.067-3.021" fill="none" stroke="#d3d7cf" stroke-linecap="round" stroke-linejoin="round"/>
        <path d="M-65.5 14.5v-2h3" fill="none" stroke="#d3d7cf" stroke-linecap="round"/>
        <path opacity=".117" fill="url(#y)" d="M-66 35h3v2h-3z"/>
    </g>
</svg>
