<svg xmlns="http://www.w3.org/2000/svg" xmlns:xlink="http://www.w3.org/1999/xlink" width="48" height="48">
    <defs>
        <linearGradient id="c">
            <stop offset="0"/>
            <stop offset="1" stop-opacity="0"/>
        </linearGradient>
        <linearGradient id="b">
            <stop offset="0" stop-color="#e6eef7"/>
            <stop offset="1" stop-color="#8ab0d8"/>
        </linearGradient>
        <linearGradient id="a">
            <stop offset="0"/>
            <stop offset="1" stop-opacity="0"/>
        </linearGradient>
        <radialGradient xlink:href="#a" id="d" cx="24.625" cy="38.625" fx="24.625" fy="38.625" r="21.125" gradientTransform="matrix(1 0 0 .42012 0 22.398)" gradientUnits="userSpaceOnUse"/>
        <radialGradient xlink:href="#b" id="e" cx="24.502" cy="12.605" fx="24.502" fy="12.605" r="20.508" gradientTransform="matrix(2.31926 0 0 2.37468 -32.325 -17.6)" gradientUnits="userSpaceOnUse"/>
        <radialGradient xlink:href="#c" id="f" cx="25.986" cy="26.787" fx="25.986" fy="26.787" r="15.465" gradientTransform="matrix(.86314 0 0 .4389 3.557 15.03)" gradientUnits="userSpaceOnUse"/>
    </defs>
    <path style="marker:none" d="M45.75 38.625a21.125 8.875 0 1 1-42.25 0 21.125 8.875 0 1 1 42.25 0z" color="#000" fill="url(#d)" overflow="visible"/>
    <rect style="marker:none" width="40.015" height="40.996" x="4.495" y="3.502" rx="5.25" ry="5.25" color="#000" fill="url(#e)" fill-rule="evenodd" stroke="#3465a4" stroke-miterlimit="10" overflow="visible"/>
    <rect ry="4.189" rx="4.189" y="4.501" x="5.489" height="38.996" width="38.017" style="marker:none" color="#000" fill="none" stroke="#fff" stroke-miterlimit="10" overflow="visible"/>
    <path style="marker:none" d="M39.952 26.787a13.965 6.364 0 1 1-27.931 0 13.965 6.364 0 1 1 27.93 0z" transform="matrix(1.34177 0 0 .72222 -10.472 10.27)" opacity=".335" color="#000" fill="url(#f)" overflow="visible"/>
    <path style="marker:none" opacity=".335" color="#000" overflow="visible" d="M10 35h28v1H10zm0 2h28v1H10zm0 2h18v1H10z"/>
    <path d="M23.375 5.125c-1.49 3.319-3.668 6.253-5.436 9.42-2.029 3.39-5.404 5.608-8.191 8.312-1.258 1.122-2.63 2.125-3.78 3.362 1.473.687 3.323-.17 4.738-.789.766-.294 1.623-1.514.352-.375-1.777 1.816-3.526 3.754-4.689 6.03-.288 1.836 2.22-.168 2.917-.662 3.359-2.552 6.174-5.926 10.094-7.665 1.814-1.137 2.875.48 3.58 1.936 1.252 1.985 2.604 4.023 4.708 5.186 1.569.743 3.438.543 5.106.306 3.829-1.007 7.585-3.046 9.908-6.33 1.465-2.577.734-5.625.579-8.427l-.167-1.991c-1.15 2.019-2.117 4.192-3.88 5.776-2.597 2.374-5.256 5.19-8.926 5.7-1.618.706-3.93-.558-3.584-2.428.795-1.581 2.687-2.083 4.09-2.988 3.812-2.25 8.005-4.212 10.775-7.8 1.094-1.165 1.892-2.597 1.34-4.216-.547-1.232-1.942-2.904-2.983-1.15-3.236 3.006-6.924 5.469-10.396 8.188-1.188.584-3.251 2.897-4.334 1.555-.773-3.528-.414-7.257-1.561-10.713-.055-.078-.116-.284-.26-.237zm-18.25 1.5c-.238.42-.057.58 0 0zm16.75 7.141c.083 1.276.133 2.585-.511 3.752-.283.804-3.103 3.176-2.318.956.697-1.715 1.76-3.213 2.829-4.708zM5.437 34.938c.05.32.12.001 0 0z" fill="#f9f9f9"/>
    <path d="M23.447 5.325c-.058.028-1.083 2.793-2.592 5.528-3.619 6.563-5.916 9.436-9.627 11.91-1.605 1.07-4.132 2.418-4.687 3.155-.528.701-.206.272 1.937-.343 5.35-1.536 4.951-2.756.906 2.093-5.51 6.606-2.739 4.554 3.032-.843 2.646-2.475 5.531-4.212 6.28-4.5.805-.31 1.31-.525 2.313-.594 1.188-.081 1.872.039 2.313 1.344.375 1.11 1.224 3.134 2.562 4.718.542.642 1.023.951 1.516 1.257.454.283.914.582 1.549.71 1.266.28 2.111.137 2.998.096 1.9-.113 5.13-1.846 7.344-3.625 3.541-2.846 4.015-3.72 3.968-7.313l-.03-4.093-1.688 2.5c-3.629 5.407-7.976 9-10.907 9-6.477 0-7.339-5.002-1.187-7.532 5.31-2.182 11.94-6.564 13.625-9.312.004-.206-.005-.429-.008-.617a4.659 4.659 0 0 0-.402-1.62c-.246-.5-.688-.84-1.051-1.173-.33-.232-.529-.365-.777-.34-.315.107-.444.27-.543.562-.789 2.314-12.484 11.5-15.563 11.5-.297 0-.416-2.358-.671-5.924-.265-3.708-.172-6.755-.61-6.544zm-1.313 7.578l.25 2.86c-.047 1.88-1.088 2.947-2.239 3.43-1.142.478-2.266 1.297-2.162.017.055-.677 1.076-1.756 2.302-3.484zM5.447 34.825c.014.038.046.087.062.125-.001-.02.002-.043 0-.063-.002.01-.033 0-.062-.062z" fill="#d40000"/>
</svg>
