<svg xmlns="http://www.w3.org/2000/svg" xmlns:xlink="http://www.w3.org/1999/xlink" width="48" height="48" version="1.0">
    <defs>
        <linearGradient id="b">
            <stop offset="0" stop-color="#fcaf3e"/>
            <stop offset="1" stop-color="#fff"/>
        </linearGradient>
        <linearGradient id="c">
            <stop offset="0" stop-color="#fff"/>
            <stop offset="1" stop-color="#fff" stop-opacity="0"/>
        </linearGradient>
        <linearGradient id="a">
            <stop offset="0"/>
            <stop offset="1" stop-opacity="0"/>
        </linearGradient>
        <radialGradient xlink:href="#a" id="d" gradientUnits="userSpaceOnUse" gradientTransform="matrix(1 0 0 .53785 0 7.842)" cx="12.156" cy="16.969" fx="12.156" fy="16.969" r="7.844"/>
        <linearGradient xlink:href="#b" id="e" gradientUnits="userSpaceOnUse" x1="22.125" y1="-75.956" x2="22.125" y2="-148.643"/>
        <linearGradient xlink:href="#c" id="f" gradientUnits="userSpaceOnUse" gradientTransform="matrix(-1 0 0 1 49 -118)" x1="18.5" y1="5.625" x2="26.262" y2="33.009"/>
        <linearGradient xlink:href="#c" id="g" gradientUnits="userSpaceOnUse" gradientTransform="matrix(-1 0 0 1 49 -118)" x1="19.375" y1="27.371" x2="17.168" y2="43.64"/>
    </defs>
    <g color="#000">
        <path transform="matrix(2.67729 0 0 2.13333 -8.546 2.8)" d="M20 16.969a7.844 4.219 0 1 1-15.688 0 7.844 4.219 0 1 1 15.688 0z" style="marker:none" opacity=".15" fill="url(#d)" overflow="visible"/>
        <path style="marker:none" d="M36.844-115.5c-11.445 0-20.344 9.085-20.344 20v3H10a1 1 0 0 0-.719 1.688l12.969 14.03a1 1 0 0 0 1.469 0l12.937-14.03a1 1 0 0 0-.75-1.688H29.5v-3c0-2.108.724-3.878 2-5.094 1.278-1.218 3.131-1.906 5.344-1.906H45.5a1 1 0 0 0 1-1v-11a1 1 0 0 0-1-1h-8.656z" fill="url(#e)" stroke="#ce5c00" stroke-linecap="round" stroke-dashoffset="1.4" overflow="visible" transform="matrix(-1 0 0 1 49 120)"/>
        <path d="M17.5-91.5v-4c0-10.375 8.396-19 19.312-19H45.5v11h-8.656c-2.424 0-4.541.767-6.032 2.188-1.49 1.42-2.312 3.47-2.312 5.812v4" style="marker:none" fill="none" stroke="url(#f)" stroke-linecap="round" stroke-dashoffset="1.4" overflow="visible" transform="matrix(-1 0 0 1 49 120)"/>
        <path d="M28.5-91.5h7.406L22.97-77.469 10-91.5h7.5" style="marker:none" fill="none" stroke="url(#g)" stroke-linecap="round" stroke-linejoin="round" stroke-dashoffset="1.4" overflow="visible" transform="matrix(-1 0 0 1 49 120)"/>
    </g>
</svg>
